<svg id="Capa_1" enable-background="new 0 0 512 512" height="512" viewBox="0 0 512 512" width="512" xmlns="http://www.w3.org/2000/svg"><g><path d="m256 502c-8.284 0-15-6.716-15-15v-50c0-8.284 6.716-15 15-15s15 6.716 15 15v50c0 8.284-6.716 15-15 15z" fill="#47568c"/><path d="m256 422v80c8.284 0 15-6.716 15-15v-50c0-8.284-6.716-15-15-15z" fill="#29376d"/><path d="m286 512h-60c-8.284 0-15-6.716-15-15s6.716-15 15-15h60c8.284 0 15 6.716 15 15s-6.716 15-15 15z" fill="#61729b"/><path d="m286 482h-30v30h30c8.284 0 15-6.716 15-15s-6.716-15-15-15z" fill="#47568c"/><path d="m467 65h-422c-8.284 0-15 6.716-15 15v357c0 8.284 6.716 15 15 15h422c8.284 0 15-6.716 15-15v-357c0-8.284-6.716-15-15-15z" fill="#f0f7ff"/><path d="m467 65h-211v387h211c8.284 0 15-6.716 15-15v-357c0-8.284-6.716-15-15-15z" fill="#dfe7f4"/><path d="m497 0h-482c-8.284 0-15 6.716-15 15v65c0 8.284 6.716 15 15 15h482c8.284 0 15-6.716 15-15v-65c0-8.284-6.716-15-15-15z" fill="#7c83e7"/><path d="m497 0h-241v95h241c8.284 0 15-6.716 15-15v-65c0-8.284-6.716-15-15-15z" fill="#5f69e2"/><g fill="#e63950"><path d="m429.5 360.799h-121c-8.284 0-15-6.716-15-15s6.716-15 15-15h121c8.284 0 15 6.716 15 15s-6.716 15-15 15z"/><path d="m429.5 300.799h-121c-8.284 0-15-6.716-15-15s6.716-15 15-15h121c8.284 0 15 6.716 15 15s-6.716 15-15 15z"/><path d="m429.5 240.799h-121c-8.284 0-15-6.716-15-15s6.716-15 15-15h121c8.284 0 15 6.716 15 15s-6.716 15-15 15z"/></g><path d="m207.278 273.079h-51.558v-51.559c0-7.025-5.695-12.72-12.72-12.72-42.457 0-76.998 34.542-76.998 76.999s34.541 77 76.998 77c42.458 0 76.998-34.542 76.998-77 0-7.025-5.694-12.72-12.72-12.72z" fill="#fff983"/><path d="m219.977 286.228c.005-.143.021-.284.021-.429 0-42.457-34.541-76.999-76.998-76.999v77.428z" fill="#ff6c6c"/><path d="m351.601 155h-191.202c-8.284 0-15-6.716-15-15s6.716-15 15-15h191.201c8.284 0 15 6.716 15 15s-6.715 15-14.999 15z" fill="#61729b"/><path d="m351.601 125h-95.601v30h95.601c8.284 0 15-6.716 15-15s-6.716-15-15-15z" fill="#47568c"/></g></svg>